# xmcd
# 
# Track frame offsets:
#     150
#     15922
#     43583
#     67680
#     81512
#     96871
#     120352
#     145836
#     163916
#     189400
#     209231
#     233268
# 
# Disc length: 3444
# 
# Revision: 0
# Processed by: cddbd v1.5.2PL0 Copyright (c) Steve Scherf et al.
# Submitted via: fre:ac v1.0.27
# 
DISCID=960d720c
DTITLE=Diana Krall - From This Moment On
DYEAR=2006
DGENRE=Jazz
TTITLE0=It Could Happen To You
TTITLE1=Isn't This A Lovely Day
TTITLE2=How Insensitive
TTITLE3=Exactly Like You
TTITLE4=From This Moment On
TTITLE5=I Was Doing Alright
TTITLE6=Little Girl Blue
TTITLE7=Day In Day Out
TTITLE8=Willow Weep For Me
TTITLE9=Come Dance With Me
TTITLE10=It Was A Beautiful Day In August/You Can Depend On Me
TTITLE11=The Boulevard Of Broken Dreams
EXTD=
EXTT0=
EXTT1=
EXTT2=
EXTT3=
EXTT4=
EXTT5=
EXTT6=
EXTT7=
EXTT8=
EXTT9=
EXTT10=
EXTT11=
PLAYORDER=
